PathFileType  4	(X/Y/Z) C:\Users\antoi\Documents\MyRepositories\mobilecap\ResultsAnalysis
DataRate	CameraRate	NumFrames	NumMarkers	Units	OrigDataRate	OrigDataStartFrame	OrigNumFrames
100.0	100.0	5	51	mm	100.0	1	1341
Frame#	Time	r_knee			r_shank_antsup			r_ankle			r_calc			r_5meta			r_toe			L_knee			L_shank_antsup			L_ankle			L_calc			L_5meta			L_toe			r_sh2			r_sh3			r_sh4			L_sh2			L_sh3			r_thigh1			r_thigh2			r_thigh3			r_thigh4			r_thigh5			L_thigh1			L_thigh2			L_thigh3			L_thigh4			r.ASIS			r.PSIS			L.ASIS			L.PSIS			C7			R_Shoulder			L_Shoulder			R_Sternum			L_Sternum			R_humerus			R_elbow_med			R_elbow_lat			R_forearm			R_wrist_radius			R_wrist_ulna			L_humerus			L_elbow_med			L_elbow_lat			L_forearm			L_wrist_radius			L_wrist_ulna			R_HJC			L_HJC			R_HJC_reg			L_HJC_reg			
		X1	Y1	Z1	X2	Y2	Z2	X3	Y3	Z3	X4	Y4	Z4	X5	Y5	Z5	X6	Y6	Z6	X7	Y7	Z7	X8	Y8	Z8	X9	Y9	Z9	X10	Y10	Z10	X11	Y11	Z11	X12	Y12	Z12	X13	Y13	Z13	X14	Y14	Z14	X15	Y15	Z15	X16	Y16	Z16	X17	Y17	Z17	X18	Y18	Z18	X19	Y19	Z19	X20	Y20	Z20	X21	Y21	Z21	X22	Y22	Z22	X23	Y23	Z23	X24	Y24	Z24	X25	Y25	Z25	X26	Y26	Z26	X27	Y27	Z27	X28	Y28	Z28	X29	Y29	Z29	X30	Y30	Z30	X31	Y31	Z31	X32	Y32	Z32	X33	Y33	Z33	X34	Y34	Z34	X35	Y35	Z35	X36	Y36	Z36	X37	Y37	Z37	X38	Y38	Z38	X39	Y39	Z39	X40	Y40	Z40	X41	Y41	Z41	X42	Y42	Z42	X43	Y43	Z43	X44	Y44	Z44	X45	Y45	Z45	X46	Y46	Z46	X47	Y47	Z47	X48	Y48	Z48	X49	Y49	Z49	X50	Y50	Z50	X51	Y51	Z51	

1	0.00000000	-222.70366	503.84112	-370.16592	-189.28295	459.93163	-370.26736	-262.94526	100.43996	-358.46933	-317.61157	58.57104	-407.15942	-140.99532	40.01721	-311.39923	-98.16939	60.52473	-365.33760	-213.54802	502.40203	-787.93061	-195.68542	421.87042	-809.69460	-253.88539	99.23837	-799.52533	-310.83750	56.29398	-750.40973	-134.73802	41.67805	-833.60779	-90.78685	59.59658	-779.19055	-194.68186	344.98717	-369.27355	-259.38604	463.15137	-337.22334	-264.80128	347.29157	-324.10856	-282.76246	437.08241	-816.28638	-289.51437	314.59140	-824.25038	-100.03783	783.05426	-453.91775	-104.34054	673.28353	-432.19336	-132.80037	664.19542	-369.90417	-172.91920	802.00885	-370.91138	-179.98839	688.60987	-351.54061	-143.71711	820.23366	-762.58143	-155.50617	681.94691	-792.15874	-255.91638	827.02495	-754.70261	-267.05836	686.13539	-759.80828	-113.12683	964.53382	-443.03892	-298.80545	993.78854	-531.82213	-100.20153	952.81747	-686.02709	-295.99977	993.86000	-630.25859	-265.66920	1457.49354	-586.08295	-201.14604	1420.75184	-413.04851	-193.13158	1413.80129	-745.51859	-151.18960	1368.60741	-559.44944	-147.40380	1366.17847	-597.64430	-227.41966	1186.38049	-325.00972	-279.50600	1082.85118	-365.61044	-254.24774	1099.72097	-299.50805	-113.90814	1109.17336	-312.03925	-22.34119	1140.02151	-341.57348	-17.73699	1096.31851	-331.62569	-218.27827	1186.47782	-832.38842	-250.89480	1071.14257	-778.49698	-242.94829	1080.34589	-849.74538	-96.49468	1097.17692	-834.65664	-1.10876	1134.03213	-805.12607	4.28378	1089.18433	-803.66248	-184.30473	880.94670	-483.46960	-186.29353	883.12526	-674.11817	-177.95820	884.30294	-478.89093	-173.37729	884.41962	-639.61059	
2	0.01000000	-222.74174	503.82491	-370.15188	-189.32176	459.91148	-370.20491	-262.95174	100.44231	-358.47982	-317.62423	58.59083	-407.14331	-141.00077	39.99207	-311.39312	-98.16920	60.50690	-365.32614	-213.57506	502.39923	-787.91936	-195.70716	421.85703	-809.69986	-253.88648	99.22721	-799.52362	-310.79369	56.29591	-750.36145	-134.76325	41.65979	-833.58379	-90.77090	59.57922	-779.14419	-194.71295	344.96047	-369.23373	-259.49221	463.02243	-337.22599	-264.61576	347.24355	-323.98452	-282.78142	437.07835	-816.27206	-289.55280	314.65267	-824.28359	-100.13263	783.03711	-453.83810	-104.37867	673.26334	-432.19289	-132.82394	664.27586	-369.83331	-172.93939	802.08737	-370.87434	-180.07443	688.63401	-351.57703	-143.80546	820.24051	-762.55463	-155.57049	681.97953	-792.19368	-256.00171	827.01925	-754.68858	-266.96338	686.47561	-760.12792	-113.23172	964.54264	-443.00705	-298.92560	993.89532	-531.75077	-100.25731	952.81282	-685.99960	-296.02765	993.83838	-630.16707	-265.54483	1457.54807	-586.00482	-200.99282	1420.76011	-412.89800	-192.96300	1413.82675	-745.37142	-151.01176	1368.70439	-559.25992	-147.26391	1366.22426	-597.50653	-227.30575	1186.47395	-324.90550	-279.44490	1082.82205	-365.15743	-254.15637	1099.72424	-299.39556	-113.74653	1109.17979	-311.82354	-22.18784	1140.03327	-341.51571	-17.69269	1096.32776	-331.62037	-218.09244	1186.48928	-832.31127	-250.85396	1071.15804	-778.49622	-242.75888	1080.38555	-849.71827	-96.33025	1097.26681	-834.64552	-0.93237	1134.10454	-804.74999	4.44058	1089.25795	-803.54408	-184.40225	880.97974	-483.39858	-186.39128	883.12768	-674.04749	-178.19575	884.48574	-478.83137	-173.46322	884.39267	-639.55161	
3	0.02000000	-222.77711	503.82385	-370.13488	-189.37638	459.90949	-370.19156	-262.93690	100.44963	-358.48344	-317.62344	58.60441	-407.13303	-141.00932	39.97965	-311.39380	-98.16872	60.49036	-365.32804	-213.61607	502.38087	-787.90815	-195.73590	421.84148	-809.70518	-253.88962	99.21254	-799.53017	-310.81405	56.26338	-750.37091	-134.77541	41.63807	-833.58193	-90.76243	59.58705	-779.18540	-194.73441	344.98889	-369.22347	-259.53147	463.05776	-337.20444	-264.60558	347.41361	-323.82409	-282.80477	437.06887	-816.27018	-289.58480	314.65980	-824.28917	-100.22860	783.07285	-453.79512	-104.47500	673.25601	-432.18826	-132.91201	664.31024	-369.76882	-173.04005	802.08635	-370.84522	-180.15156	688.62463	-351.59228	-143.89676	820.22794	-762.53495	-155.65205	681.99013	-792.19917	-256.09162	827.01127	-754.62546	-266.97200	686.63025	-760.26311	-113.33791	964.56060	-442.96559	-298.99295	993.93000	-531.67810	-100.33030	952.78865	-685.95850	-296.10681	993.88369	-630.16231	-265.39921	1457.55248	-585.88823	-200.86169	1420.76131	-412.81794	-192.78820	1413.88613	-745.27342	-150.85823	1368.77267	-559.13768	-147.08648	1366.29251	-597.32803	-227.14685	1186.53343	-324.75718	-279.41610	1082.86054	-364.71674	-254.07041	1099.77485	-299.19933	-113.56858	1109.21872	-311.52214	-22.03744	1140.05258	-341.49685	-17.56905	1096.29002	-331.48898	-217.89473	1186.53003	-832.17027	-250.78897	1071.23752	-778.48130	-242.58076	1080.42927	-849.68796	-96.15165	1097.36439	-834.60385	-0.74399	1134.17677	-804.45251	4.62660	1089.27998	-803.30561	-184.51089	881.00374	-483.34727	-186.49007	883.13125	-673.99651	-178.27757	884.47725	-478.78680	-173.56742	884.40157	-639.51051	
4	0.03000000	-222.82201	503.83575	-370.13718	-189.43991	459.93269	-370.20746	-262.88906	100.47716	-358.45045	-317.60962	58.61219	-407.13187	-141.01197	39.98215	-311.39725	-98.15988	60.47335	-365.34818	-213.67604	502.37132	-787.96748	-195.77037	421.82156	-809.71190	-253.89104	99.19289	-799.54099	-310.84828	56.23815	-750.42542	-134.75844	41.61775	-833.61270	-90.76882	59.57101	-779.20590	-194.73239	345.06259	-369.24297	-259.52040	463.13426	-337.18497	-264.73792	347.58851	-323.70267	-282.83189	437.05368	-816.27769	-289.59845	314.65120	-824.28356	-100.32591	783.13797	-453.73609	-104.60297	673.23981	-432.15469	-133.01133	664.33746	-369.71497	-173.19789	802.07022	-370.81534	-180.19695	688.65790	-351.54640	-143.99552	820.20495	-762.52060	-155.75186	681.96605	-792.17113	-256.18140	827.00538	-754.60029	-267.17673	686.41303	-760.02099	-113.43955	964.56692	-442.92503	-299.05506	993.95731	-531.65549	-100.42948	952.75042	-685.89042	-296.23077	993.94465	-630.19429	-265.23988	1457.55984	-585.75929	-200.68919	1420.76646	-412.69957	-192.58476	1413.96525	-745.16942	-150.71543	1368.79393	-559.05482	-146.86230	1366.37636	-597.10925	-226.95595	1186.62337	-324.52119	-279.41855	1082.93469	-364.26314	-253.97314	1099.86527	-298.91087	-113.38286	1109.30273	-311.23886	-21.92011	1140.01430	-341.51576	-17.40471	1096.20882	-331.34738	-217.66717	1186.58549	-832.00065	-250.56496	1071.34127	-778.36200	-242.40748	1080.46072	-849.61522	-95.96443	1097.48186	-834.49135	-0.56404	1134.23996	-804.25277	4.82561	1089.29846	-803.02610	-184.64866	881.02368	-483.30810	-186.60533	883.12715	-673.95784	-178.32542	884.44154	-478.72030	-173.71921	884.42093	-639.43045	
5	0.04000000	-222.89007	503.83368	-370.16322	-189.48440	459.99556	-370.20401	-262.83201	100.51326	-358.42766	-317.59902	58.61826	-407.13839	-141.00762	39.98675	-311.39234	-98.14235	60.44402	-365.35925	-213.75264	502.36959	-788.06513	-195.80664	421.79106	-809.72047	-253.88931	99.16890	-799.55219	-310.83619	56.24878	-750.46787	-134.73523	41.59739	-833.65036	-90.78251	59.51258	-779.15433	-194.72485	345.04673	-369.25976	-259.49437	463.16267	-337.18001	-264.84549	347.55115	-323.69698	-282.86689	437.02738	-816.27916	-289.60121	314.65389	-824.28421	-100.41391	783.19085	-453.63680	-104.71749	673.23070	-432.12553	-133.08881	664.36299	-369.68245	-173.33229	802.11551	-370.77754	-180.26772	688.70979	-351.46383	-144.13324	820.18653	-762.47123	-155.84857	681.92876	-792.16197	-256.27873	826.97755	-754.63376	-267.47219	686.06146	-759.67183	-113.55764	964.56876	-442.86194	-299.16704	994.02430	-531.68898	-100.53175	952.70210	-685.81047	-296.33650	993.98147	-630.20071	-265.08037	1457.59472	-585.62084	-200.46242	1420.80721	-412.43906	-192.33094	1414.03938	-745.02730	-150.53288	1368.80931	-558.92342	-146.62992	1366.43391	-596.90223	-226.77953	1186.78220	-324.14781	-279.35663	1083.01250	-363.80577	-253.82259	1099.95250	-298.57145	-113.22072	1109.38021	-311.04554	-21.83824	1139.92662	-341.52272	-17.20571	1096.16604	-331.25142	-217.42756	1186.63980	-831.86469	-250.19961	1071.41331	-778.15673	-242.23486	1080.46735	-849.44503	-95.77429	1097.61320	-834.32550	-0.39577	1134.28395	-804.06722	4.99701	1089.33502	-802.76014	-184.82005	881.05201	-483.25521	-186.72578	883.11127	-673.90595	-178.48115	884.48222	-478.63681	-173.86371	884.41236	-639.33765	
